<?xml version="1.0" encoding="utf-8" standalone="no"?>
<!DOCTYPE svg PUBLIC "-//W3C//DTD SVG 1.1//EN"
  "http://www.w3.org/Graphics/SVG/1.1/DTD/svg11.dtd">
<svg xmlns:xlink="http://www.w3.org/1999/xlink" width="460.8pt" height="345.6pt" viewBox="0 0 460.8 345.6" xmlns="http://www.w3.org/2000/svg" version="1.1">
 <metadata>
  <rdf:RDF xmlns:dc="http://purl.org/dc/elements/1.1/" xmlns:cc="http://creativecommons.org/ns#" xmlns:rdf="http://www.w3.org/1999/02/22-rdf-syntax-ns#">
   <cc:Work>
    <dc:type rdf:resource="http://purl.org/dc/dcmitype/StillImage"/>
    <dc:date>2023-04-29T16:49:42.487616</dc:date>
    <dc:format>image/svg+xml</dc:format>
    <dc:creator>
     <cc:Agent>
      <dc:title>Matplotlib v3.6.2, https://matplotlib.org/</dc:title>
     </cc:Agent>
    </dc:creator>
   </cc:Work>
  </rdf:RDF>
 </metadata>
 <defs>
  <style type="text/css">*{stroke-linejoin: round; stroke-linecap: butt}</style>
 </defs>
 <g id="figure_1">
  <g id="patch_1">
   <path d="M 0 345.6 
L 460.8 345.6 
L 460.8 0 
L 0 0 
z
" style="fill: #ffffff"/>
  </g>
  <g id="axes_1">
   <g id="patch_2">
    <path d="M 52.94 303.64 
L 444.215797 303.64 
L 444.215797 10.8 
L 52.94 10.8 
z
" style="fill: #ffffff"/>
   </g>
   <g id="matplotlib.axis_1">
    <g id="xtick_1">
     <g id="line2d_1">
      <defs>
       <path id="me609d56e86" d="M 0 0 
L 0 3.5 
" style="stroke: #000000; stroke-width: 0.8"/>
      </defs>
      <g>
       <use xlink:href="#me609d56e86" x="52.94" y="303.64" style="stroke: #000000; stroke-width: 0.8"/>
      </g>
     </g>
     <g id="text_1">
      <!-- 0 -->
      <g transform="translate(49.75875 318.238437) scale(0.1 -0.1)">
       <defs>
        <path id="DejaVuSans-30" d="M 2034 4250 
Q 1547 4250 1301 3770 
Q 1056 3291 1056 2328 
Q 1056 1369 1301 889 
Q 1547 409 2034 409 
Q 2525 409 2770 889 
Q 3016 1369 3016 2328 
Q 3016 3291 2770 3770 
Q 2525 4250 2034 4250 
z
M 2034 4750 
Q 2819 4750 3233 4129 
Q 3647 3509 3647 2328 
Q 3647 1150 3233 529 
Q 2819 -91 2034 -91 
Q 1250 -91 836 529 
Q 422 1150 422 2328 
Q 422 3509 836 4129 
Q 1250 4750 2034 4750 
z
" transform="scale(0.015625)"/>
       </defs>
       <use xlink:href="#DejaVuSans-30"/>
      </g>
     </g>
    </g>
    <g id="xtick_2">
     <g id="line2d_2">
      <g>
       <use xlink:href="#me609d56e86" x="130.382018" y="303.64" style="stroke: #000000; stroke-width: 0.8"/>
      </g>
     </g>
     <g id="text_2">
      <!-- 20 -->
      <g transform="translate(124.019518 318.238437) scale(0.1 -0.1)">
       <defs>
        <path id="DejaVuSans-32" d="M 1228 531 
L 3431 531 
L 3431 0 
L 469 0 
L 469 531 
Q 828 903 1448 1529 
Q 2069 2156 2228 2338 
Q 2531 2678 2651 2914 
Q 2772 3150 2772 3378 
Q 2772 3750 2511 3984 
Q 2250 4219 1831 4219 
Q 1534 4219 1204 4116 
Q 875 4013 500 3803 
L 500 4441 
Q 881 4594 1212 4672 
Q 1544 4750 1819 4750 
Q 2544 4750 2975 4387 
Q 3406 4025 3406 3419 
Q 3406 3131 3298 2873 
Q 3191 2616 2906 2266 
Q 2828 2175 2409 1742 
Q 1991 1309 1228 531 
z
" transform="scale(0.015625)"/>
       </defs>
       <use xlink:href="#DejaVuSans-32"/>
       <use xlink:href="#DejaVuSans-30" x="63.623047"/>
      </g>
     </g>
    </g>
    <g id="xtick_3">
     <g id="line2d_3">
      <g>
       <use xlink:href="#me609d56e86" x="207.824036" y="303.64" style="stroke: #000000; stroke-width: 0.8"/>
      </g>
     </g>
     <g id="text_3">
      <!-- 40 -->
      <g transform="translate(201.461536 318.238437) scale(0.1 -0.1)">
       <defs>
        <path id="DejaVuSans-34" d="M 2419 4116 
L 825 1625 
L 2419 1625 
L 2419 4116 
z
M 2253 4666 
L 3047 4666 
L 3047 1625 
L 3713 1625 
L 3713 1100 
L 3047 1100 
L 3047 0 
L 2419 0 
L 2419 1100 
L 313 1100 
L 313 1709 
L 2253 4666 
z
" transform="scale(0.015625)"/>
       </defs>
       <use xlink:href="#DejaVuSans-34"/>
       <use xlink:href="#DejaVuSans-30" x="63.623047"/>
      </g>
     </g>
    </g>
    <g id="xtick_4">
     <g id="line2d_4">
      <g>
       <use xlink:href="#me609d56e86" x="285.266054" y="303.64" style="stroke: #000000; stroke-width: 0.8"/>
      </g>
     </g>
     <g id="text_4">
      <!-- 60 -->
      <g transform="translate(278.903554 318.238437) scale(0.1 -0.1)">
       <defs>
        <path id="DejaVuSans-36" d="M 2113 2584 
Q 1688 2584 1439 2293 
Q 1191 2003 1191 1497 
Q 1191 994 1439 701 
Q 1688 409 2113 409 
Q 2538 409 2786 701 
Q 3034 994 3034 1497 
Q 3034 2003 2786 2293 
Q 2538 2584 2113 2584 
z
M 3366 4563 
L 3366 3988 
Q 3128 4100 2886 4159 
Q 2644 4219 2406 4219 
Q 1781 4219 1451 3797 
Q 1122 3375 1075 2522 
Q 1259 2794 1537 2939 
Q 1816 3084 2150 3084 
Q 2853 3084 3261 2657 
Q 3669 2231 3669 1497 
Q 3669 778 3244 343 
Q 2819 -91 2113 -91 
Q 1303 -91 875 529 
Q 447 1150 447 2328 
Q 447 3434 972 4092 
Q 1497 4750 2381 4750 
Q 2619 4750 2861 4703 
Q 3103 4656 3366 4563 
z
" transform="scale(0.015625)"/>
       </defs>
       <use xlink:href="#DejaVuSans-36"/>
       <use xlink:href="#DejaVuSans-30" x="63.623047"/>
      </g>
     </g>
    </g>
    <g id="xtick_5">
     <g id="line2d_5">
      <g>
       <use xlink:href="#me609d56e86" x="362.708073" y="303.64" style="stroke: #000000; stroke-width: 0.8"/>
      </g>
     </g>
     <g id="text_5">
      <!-- 80 -->
      <g transform="translate(356.345573 318.238437) scale(0.1 -0.1)">
       <defs>
        <path id="DejaVuSans-38" d="M 2034 2216 
Q 1584 2216 1326 1975 
Q 1069 1734 1069 1313 
Q 1069 891 1326 650 
Q 1584 409 2034 409 
Q 2484 409 2743 651 
Q 3003 894 3003 1313 
Q 3003 1734 2745 1975 
Q 2488 2216 2034 2216 
z
M 1403 2484 
Q 997 2584 770 2862 
Q 544 3141 544 3541 
Q 544 4100 942 4425 
Q 1341 4750 2034 4750 
Q 2731 4750 3128 4425 
Q 3525 4100 3525 3541 
Q 3525 3141 3298 2862 
Q 3072 2584 2669 2484 
Q 3125 2378 3379 2068 
Q 3634 1759 3634 1313 
Q 3634 634 3220 271 
Q 2806 -91 2034 -91 
Q 1263 -91 848 271 
Q 434 634 434 1313 
Q 434 1759 690 2068 
Q 947 2378 1403 2484 
z
M 1172 3481 
Q 1172 3119 1398 2916 
Q 1625 2713 2034 2713 
Q 2441 2713 2670 2916 
Q 2900 3119 2900 3481 
Q 2900 3844 2670 4047 
Q 2441 4250 2034 4250 
Q 1625 4250 1398 4047 
Q 1172 3844 1172 3481 
z
" transform="scale(0.015625)"/>
       </defs>
       <use xlink:href="#DejaVuSans-38"/>
       <use xlink:href="#DejaVuSans-30" x="63.623047"/>
      </g>
     </g>
    </g>
    <g id="xtick_6">
     <g id="line2d_6">
      <g>
       <use xlink:href="#me609d56e86" x="440.150091" y="303.64" style="stroke: #000000; stroke-width: 0.8"/>
      </g>
     </g>
     <g id="text_6">
      <!-- 100 -->
      <g transform="translate(430.606341 318.238437) scale(0.1 -0.1)">
       <defs>
        <path id="DejaVuSans-31" d="M 794 531 
L 1825 531 
L 1825 4091 
L 703 3866 
L 703 4441 
L 1819 4666 
L 2450 4666 
L 2450 531 
L 3481 531 
L 3481 0 
L 794 0 
L 794 531 
z
" transform="scale(0.015625)"/>
       </defs>
       <use xlink:href="#DejaVuSans-31"/>
       <use xlink:href="#DejaVuSans-30" x="63.623047"/>
       <use xlink:href="#DejaVuSans-30" x="127.246094"/>
      </g>
     </g>
    </g>
    <g id="text_7">
     <!-- Frequenz [kHz] -->
     <g transform="translate(211.062273 331.916562) scale(0.1 -0.1)">
      <defs>
       <path id="DejaVuSans-46" d="M 628 4666 
L 3309 4666 
L 3309 4134 
L 1259 4134 
L 1259 2759 
L 3109 2759 
L 3109 2228 
L 1259 2228 
L 1259 0 
L 628 0 
L 628 4666 
z
" transform="scale(0.015625)"/>
       <path id="DejaVuSans-72" d="M 2631 2963 
Q 2534 3019 2420 3045 
Q 2306 3072 2169 3072 
Q 1681 3072 1420 2755 
Q 1159 2438 1159 1844 
L 1159 0 
L 581 0 
L 581 3500 
L 1159 3500 
L 1159 2956 
Q 1341 3275 1631 3429 
Q 1922 3584 2338 3584 
Q 2397 3584 2469 3576 
Q 2541 3569 2628 3553 
L 2631 2963 
z
" transform="scale(0.015625)"/>
       <path id="DejaVuSans-65" d="M 3597 1894 
L 3597 1613 
L 953 1613 
Q 991 1019 1311 708 
Q 1631 397 2203 397 
Q 2534 397 2845 478 
Q 3156 559 3463 722 
L 3463 178 
Q 3153 47 2828 -22 
Q 2503 -91 2169 -91 
Q 1331 -91 842 396 
Q 353 884 353 1716 
Q 353 2575 817 3079 
Q 1281 3584 2069 3584 
Q 2775 3584 3186 3129 
Q 3597 2675 3597 1894 
z
M 3022 2063 
Q 3016 2534 2758 2815 
Q 2500 3097 2075 3097 
Q 1594 3097 1305 2825 
Q 1016 2553 972 2059 
L 3022 2063 
z
" transform="scale(0.015625)"/>
       <path id="DejaVuSans-71" d="M 947 1747 
Q 947 1113 1208 752 
Q 1469 391 1925 391 
Q 2381 391 2643 752 
Q 2906 1113 2906 1747 
Q 2906 2381 2643 2742 
Q 2381 3103 1925 3103 
Q 1469 3103 1208 2742 
Q 947 2381 947 1747 
z
M 2906 525 
Q 2725 213 2448 61 
Q 2172 -91 1784 -91 
Q 1150 -91 751 415 
Q 353 922 353 1747 
Q 353 2572 751 3078 
Q 1150 3584 1784 3584 
Q 2172 3584 2448 3432 
Q 2725 3281 2906 2969 
L 2906 3500 
L 3481 3500 
L 3481 -1331 
L 2906 -1331 
L 2906 525 
z
" transform="scale(0.015625)"/>
       <path id="DejaVuSans-75" d="M 544 1381 
L 544 3500 
L 1119 3500 
L 1119 1403 
Q 1119 906 1312 657 
Q 1506 409 1894 409 
Q 2359 409 2629 706 
Q 2900 1003 2900 1516 
L 2900 3500 
L 3475 3500 
L 3475 0 
L 2900 0 
L 2900 538 
Q 2691 219 2414 64 
Q 2138 -91 1772 -91 
Q 1169 -91 856 284 
Q 544 659 544 1381 
z
M 1991 3584 
L 1991 3584 
z
" transform="scale(0.015625)"/>
       <path id="DejaVuSans-6e" d="M 3513 2113 
L 3513 0 
L 2938 0 
L 2938 2094 
Q 2938 2591 2744 2837 
Q 2550 3084 2163 3084 
Q 1697 3084 1428 2787 
Q 1159 2491 1159 1978 
L 1159 0 
L 581 0 
L 581 3500 
L 1159 3500 
L 1159 2956 
Q 1366 3272 1645 3428 
Q 1925 3584 2291 3584 
Q 2894 3584 3203 3211 
Q 3513 2838 3513 2113 
z
" transform="scale(0.015625)"/>
       <path id="DejaVuSans-7a" d="M 353 3500 
L 3084 3500 
L 3084 2975 
L 922 459 
L 3084 459 
L 3084 0 
L 275 0 
L 275 525 
L 2438 3041 
L 353 3041 
L 353 3500 
z
" transform="scale(0.015625)"/>
       <path id="DejaVuSans-20" transform="scale(0.015625)"/>
       <path id="DejaVuSans-5b" d="M 550 4863 
L 1875 4863 
L 1875 4416 
L 1125 4416 
L 1125 -397 
L 1875 -397 
L 1875 -844 
L 550 -844 
L 550 4863 
z
" transform="scale(0.015625)"/>
       <path id="DejaVuSans-6b" d="M 581 4863 
L 1159 4863 
L 1159 1991 
L 2875 3500 
L 3609 3500 
L 1753 1863 
L 3688 0 
L 2938 0 
L 1159 1709 
L 1159 0 
L 581 0 
L 581 4863 
z
" transform="scale(0.015625)"/>
       <path id="DejaVuSans-48" d="M 628 4666 
L 1259 4666 
L 1259 2753 
L 3553 2753 
L 3553 4666 
L 4184 4666 
L 4184 0 
L 3553 0 
L 3553 2222 
L 1259 2222 
L 1259 0 
L 628 0 
L 628 4666 
z
" transform="scale(0.015625)"/>
       <path id="DejaVuSans-5d" d="M 1947 4863 
L 1947 -844 
L 622 -844 
L 622 -397 
L 1369 -397 
L 1369 4416 
L 622 4416 
L 622 4863 
L 1947 4863 
z
" transform="scale(0.015625)"/>
      </defs>
      <use xlink:href="#DejaVuSans-46"/>
      <use xlink:href="#DejaVuSans-72" x="50.269531"/>
      <use xlink:href="#DejaVuSans-65" x="89.132812"/>
      <use xlink:href="#DejaVuSans-71" x="150.65625"/>
      <use xlink:href="#DejaVuSans-75" x="214.132812"/>
      <use xlink:href="#DejaVuSans-65" x="277.511719"/>
      <use xlink:href="#DejaVuSans-6e" x="339.035156"/>
      <use xlink:href="#DejaVuSans-7a" x="402.414062"/>
      <use xlink:href="#DejaVuSans-20" x="454.904297"/>
      <use xlink:href="#DejaVuSans-5b" x="486.691406"/>
      <use xlink:href="#DejaVuSans-6b" x="525.705078"/>
      <use xlink:href="#DejaVuSans-48" x="583.615234"/>
      <use xlink:href="#DejaVuSans-7a" x="658.810547"/>
      <use xlink:href="#DejaVuSans-5d" x="711.300781"/>
     </g>
    </g>
   </g>
   <g id="matplotlib.axis_2">
    <g id="ytick_1">
     <g id="line2d_7">
      <defs>
       <path id="mb273fb2602" d="M 0 0 
L -3.5 0 
" style="stroke: #000000; stroke-width: 0.8"/>
      </defs>
      <g>
       <use xlink:href="#mb273fb2602" x="52.94" y="290.329091" style="stroke: #000000; stroke-width: 0.8"/>
      </g>
     </g>
     <g id="text_8">
      <!-- −60 -->
      <g transform="translate(24.835313 294.12831) scale(0.1 -0.1)">
       <defs>
        <path id="DejaVuSans-2212" d="M 678 2272 
L 4684 2272 
L 4684 1741 
L 678 1741 
L 678 2272 
z
" transform="scale(0.015625)"/>
       </defs>
       <use xlink:href="#DejaVuSans-2212"/>
       <use xlink:href="#DejaVuSans-36" x="83.789062"/>
       <use xlink:href="#DejaVuSans-30" x="147.412109"/>
      </g>
     </g>
    </g>
    <g id="ytick_2">
     <g id="line2d_8">
      <g>
       <use xlink:href="#mb273fb2602" x="52.94" y="245.34036" style="stroke: #000000; stroke-width: 0.8"/>
      </g>
     </g>
     <g id="text_9">
      <!-- −50 -->
      <g transform="translate(24.835313 249.139579) scale(0.1 -0.1)">
       <defs>
        <path id="DejaVuSans-35" d="M 691 4666 
L 3169 4666 
L 3169 4134 
L 1269 4134 
L 1269 2991 
Q 1406 3038 1543 3061 
Q 1681 3084 1819 3084 
Q 2600 3084 3056 2656 
Q 3513 2228 3513 1497 
Q 3513 744 3044 326 
Q 2575 -91 1722 -91 
Q 1428 -91 1123 -41 
Q 819 9 494 109 
L 494 744 
Q 775 591 1075 516 
Q 1375 441 1709 441 
Q 2250 441 2565 725 
Q 2881 1009 2881 1497 
Q 2881 1984 2565 2268 
Q 2250 2553 1709 2553 
Q 1456 2553 1204 2497 
Q 953 2441 691 2322 
L 691 4666 
z
" transform="scale(0.015625)"/>
       </defs>
       <use xlink:href="#DejaVuSans-2212"/>
       <use xlink:href="#DejaVuSans-35" x="83.789062"/>
       <use xlink:href="#DejaVuSans-30" x="147.412109"/>
      </g>
     </g>
    </g>
    <g id="ytick_3">
     <g id="line2d_9">
      <g>
       <use xlink:href="#mb273fb2602" x="52.94" y="200.35163" style="stroke: #000000; stroke-width: 0.8"/>
      </g>
     </g>
     <g id="text_10">
      <!-- −40 -->
      <g transform="translate(24.835313 204.150848) scale(0.1 -0.1)">
       <use xlink:href="#DejaVuSans-2212"/>
       <use xlink:href="#DejaVuSans-34" x="83.789062"/>
       <use xlink:href="#DejaVuSans-30" x="147.412109"/>
      </g>
     </g>
    </g>
    <g id="ytick_4">
     <g id="line2d_10">
      <g>
       <use xlink:href="#mb273fb2602" x="52.94" y="155.362899" style="stroke: #000000; stroke-width: 0.8"/>
      </g>
     </g>
     <g id="text_11">
      <!-- −30 -->
      <g transform="translate(24.835313 159.162118) scale(0.1 -0.1)">
       <defs>
        <path id="DejaVuSans-33" d="M 2597 2516 
Q 3050 2419 3304 2112 
Q 3559 1806 3559 1356 
Q 3559 666 3084 287 
Q 2609 -91 1734 -91 
Q 1441 -91 1130 -33 
Q 819 25 488 141 
L 488 750 
Q 750 597 1062 519 
Q 1375 441 1716 441 
Q 2309 441 2620 675 
Q 2931 909 2931 1356 
Q 2931 1769 2642 2001 
Q 2353 2234 1838 2234 
L 1294 2234 
L 1294 2753 
L 1863 2753 
Q 2328 2753 2575 2939 
Q 2822 3125 2822 3475 
Q 2822 3834 2567 4026 
Q 2313 4219 1838 4219 
Q 1578 4219 1281 4162 
Q 984 4106 628 3988 
L 628 4550 
Q 988 4650 1302 4700 
Q 1616 4750 1894 4750 
Q 2613 4750 3031 4423 
Q 3450 4097 3450 3541 
Q 3450 3153 3228 2886 
Q 3006 2619 2597 2516 
z
" transform="scale(0.015625)"/>
       </defs>
       <use xlink:href="#DejaVuSans-2212"/>
       <use xlink:href="#DejaVuSans-33" x="83.789062"/>
       <use xlink:href="#DejaVuSans-30" x="147.412109"/>
      </g>
     </g>
    </g>
    <g id="ytick_5">
     <g id="line2d_11">
      <g>
       <use xlink:href="#mb273fb2602" x="52.94" y="110.374168" style="stroke: #000000; stroke-width: 0.8"/>
      </g>
     </g>
     <g id="text_12">
      <!-- −20 -->
      <g transform="translate(24.835313 114.173387) scale(0.1 -0.1)">
       <use xlink:href="#DejaVuSans-2212"/>
       <use xlink:href="#DejaVuSans-32" x="83.789062"/>
       <use xlink:href="#DejaVuSans-30" x="147.412109"/>
      </g>
     </g>
    </g>
    <g id="ytick_6">
     <g id="line2d_12">
      <g>
       <use xlink:href="#mb273fb2602" x="52.94" y="65.385438" style="stroke: #000000; stroke-width: 0.8"/>
      </g>
     </g>
     <g id="text_13">
      <!-- −10 -->
      <g transform="translate(24.835313 69.184656) scale(0.1 -0.1)">
       <use xlink:href="#DejaVuSans-2212"/>
       <use xlink:href="#DejaVuSans-31" x="83.789062"/>
       <use xlink:href="#DejaVuSans-30" x="147.412109"/>
      </g>
     </g>
    </g>
    <g id="ytick_7">
     <g id="line2d_13">
      <g>
       <use xlink:href="#mb273fb2602" x="52.94" y="20.396707" style="stroke: #000000; stroke-width: 0.8"/>
      </g>
     </g>
     <g id="text_14">
      <!-- 0 -->
      <g transform="translate(39.5775 24.195926) scale(0.1 -0.1)">
       <use xlink:href="#DejaVuSans-30"/>
      </g>
     </g>
    </g>
    <g id="text_15">
     <!-- Amplitude [dB] -->
     <g transform="translate(18.755625 194.937969) rotate(-90) scale(0.1 -0.1)">
      <defs>
       <path id="DejaVuSans-41" d="M 2188 4044 
L 1331 1722 
L 3047 1722 
L 2188 4044 
z
M 1831 4666 
L 2547 4666 
L 4325 0 
L 3669 0 
L 3244 1197 
L 1141 1197 
L 716 0 
L 50 0 
L 1831 4666 
z
" transform="scale(0.015625)"/>
       <path id="DejaVuSans-6d" d="M 3328 2828 
Q 3544 3216 3844 3400 
Q 4144 3584 4550 3584 
Q 5097 3584 5394 3201 
Q 5691 2819 5691 2113 
L 5691 0 
L 5113 0 
L 5113 2094 
Q 5113 2597 4934 2840 
Q 4756 3084 4391 3084 
Q 3944 3084 3684 2787 
Q 3425 2491 3425 1978 
L 3425 0 
L 2847 0 
L 2847 2094 
Q 2847 2600 2669 2842 
Q 2491 3084 2119 3084 
Q 1678 3084 1418 2786 
Q 1159 2488 1159 1978 
L 1159 0 
L 581 0 
L 581 3500 
L 1159 3500 
L 1159 2956 
Q 1356 3278 1631 3431 
Q 1906 3584 2284 3584 
Q 2666 3584 2933 3390 
Q 3200 3197 3328 2828 
z
" transform="scale(0.015625)"/>
       <path id="DejaVuSans-70" d="M 1159 525 
L 1159 -1331 
L 581 -1331 
L 581 3500 
L 1159 3500 
L 1159 2969 
Q 1341 3281 1617 3432 
Q 1894 3584 2278 3584 
Q 2916 3584 3314 3078 
Q 3713 2572 3713 1747 
Q 3713 922 3314 415 
Q 2916 -91 2278 -91 
Q 1894 -91 1617 61 
Q 1341 213 1159 525 
z
M 3116 1747 
Q 3116 2381 2855 2742 
Q 2594 3103 2138 3103 
Q 1681 3103 1420 2742 
Q 1159 2381 1159 1747 
Q 1159 1113 1420 752 
Q 1681 391 2138 391 
Q 2594 391 2855 752 
Q 3116 1113 3116 1747 
z
" transform="scale(0.015625)"/>
       <path id="DejaVuSans-6c" d="M 603 4863 
L 1178 4863 
L 1178 0 
L 603 0 
L 603 4863 
z
" transform="scale(0.015625)"/>
       <path id="DejaVuSans-69" d="M 603 3500 
L 1178 3500 
L 1178 0 
L 603 0 
L 603 3500 
z
M 603 4863 
L 1178 4863 
L 1178 4134 
L 603 4134 
L 603 4863 
z
" transform="scale(0.015625)"/>
       <path id="DejaVuSans-74" d="M 1172 4494 
L 1172 3500 
L 2356 3500 
L 2356 3053 
L 1172 3053 
L 1172 1153 
Q 1172 725 1289 603 
Q 1406 481 1766 481 
L 2356 481 
L 2356 0 
L 1766 0 
Q 1100 0 847 248 
Q 594 497 594 1153 
L 594 3053 
L 172 3053 
L 172 3500 
L 594 3500 
L 594 4494 
L 1172 4494 
z
" transform="scale(0.015625)"/>
       <path id="DejaVuSans-64" d="M 2906 2969 
L 2906 4863 
L 3481 4863 
L 3481 0 
L 2906 0 
L 2906 525 
Q 2725 213 2448 61 
Q 2172 -91 1784 -91 
Q 1150 -91 751 415 
Q 353 922 353 1747 
Q 353 2572 751 3078 
Q 1150 3584 1784 3584 
Q 2172 3584 2448 3432 
Q 2725 3281 2906 2969 
z
M 947 1747 
Q 947 1113 1208 752 
Q 1469 391 1925 391 
Q 2381 391 2643 752 
Q 2906 1113 2906 1747 
Q 2906 2381 2643 2742 
Q 2381 3103 1925 3103 
Q 1469 3103 1208 2742 
Q 947 2381 947 1747 
z
" transform="scale(0.015625)"/>
       <path id="DejaVuSans-42" d="M 1259 2228 
L 1259 519 
L 2272 519 
Q 2781 519 3026 730 
Q 3272 941 3272 1375 
Q 3272 1813 3026 2020 
Q 2781 2228 2272 2228 
L 1259 2228 
z
M 1259 4147 
L 1259 2741 
L 2194 2741 
Q 2656 2741 2882 2914 
Q 3109 3088 3109 3444 
Q 3109 3797 2882 3972 
Q 2656 4147 2194 4147 
L 1259 4147 
z
M 628 4666 
L 2241 4666 
Q 2963 4666 3353 4366 
Q 3744 4066 3744 3513 
Q 3744 3084 3544 2831 
Q 3344 2578 2956 2516 
Q 3422 2416 3680 2098 
Q 3938 1781 3938 1306 
Q 3938 681 3513 340 
Q 3088 0 2303 0 
L 628 0 
L 628 4666 
z
" transform="scale(0.015625)"/>
      </defs>
      <use xlink:href="#DejaVuSans-41"/>
      <use xlink:href="#DejaVuSans-6d" x="68.408203"/>
      <use xlink:href="#DejaVuSans-70" x="165.820312"/>
      <use xlink:href="#DejaVuSans-6c" x="229.296875"/>
      <use xlink:href="#DejaVuSans-69" x="257.080078"/>
      <use xlink:href="#DejaVuSans-74" x="284.863281"/>
      <use xlink:href="#DejaVuSans-75" x="324.072266"/>
      <use xlink:href="#DejaVuSans-64" x="387.451172"/>
      <use xlink:href="#DejaVuSans-65" x="450.927734"/>
      <use xlink:href="#DejaVuSans-20" x="512.451172"/>
      <use xlink:href="#DejaVuSans-5b" x="544.238281"/>
      <use xlink:href="#DejaVuSans-64" x="583.251953"/>
      <use xlink:href="#DejaVuSans-42" x="646.728516"/>
      <use xlink:href="#DejaVuSans-5d" x="715.332031"/>
     </g>
    </g>
   </g>
   <g id="line2d_14">
    <path d="M 52.94 290.329091 
L 56.424891 290.329091 
L 56.618496 57.606121 
L 56.812101 24.110909 
L 57.005706 57.317519 
L 57.199311 290.329091 
L 60.296992 290.329091 
L 60.490597 84.836765 
L 60.684202 51.197387 
L 60.877807 84.26001 
L 61.071412 290.329091 
L 64.169093 290.329091 
L 64.362698 100.82666 
L 64.556303 67.042373 
L 64.749908 99.961077 
L 64.943513 290.329091 
L 68.041194 290.329091 
L 68.234799 112.214207 
L 68.428404 78.285506 
L 68.622009 111.060246 
L 68.815614 290.329091 
L 71.913294 290.329091 
L 72.106899 121.080137 
L 72.300505 87.007022 
L 72.49411 119.638248 
L 72.687715 290.329091 
L 75.785395 290.329091 
L 75.979 128.351665 
L 76.172605 94.133686 
L 76.36621 126.620949 
L 76.559816 290.329091 
L 79.657496 290.329091 
L 79.851101 134.522769 
L 80.044706 100.159927 
L 80.238311 132.503675 
L 80.431916 290.329091 
L 83.529597 290.329091 
L 83.723202 139.888575 
L 83.916807 105.380419 
L 84.110412 137.581103 
L 84.304017 290.329091 
L 87.401698 290.329091 
L 87.595303 144.639385 
L 87.788908 109.986365 
L 87.982513 142.043535 
L 88.176118 290.329091 
L 91.273799 290.329091 
L 91.467404 148.905217 
L 91.661009 114.106883 
L 91.854614 146.021889 
L 92.048219 290.329091 
L 95.1459 290.329091 
L 95.339505 152.778746 
L 95.53311 117.835549 
L 95.726715 149.606141 
L 95.92032 290.329091 
L 99.018001 290.329091 
L 99.211606 156.328807 
L 99.405211 121.239847 
L 99.598816 152.867374 
L 99.792421 290.329091 
L 102.890102 290.329091 
L 103.083707 159.606686 
L 103.277312 124.372412 
L 103.470917 155.856875 
L 103.664522 290.329091 
L 106.762203 290.329091 
L 106.955808 162.653323 
L 107.149413 127.273285 
L 107.343018 158.615134 
L 107.536623 290.329091 
L 110.634304 290.329091 
L 110.827909 165.50066 
L 111.021514 129.974858 
L 111.215119 161.174093 
L 111.408724 290.329091 
L 114.506404 290.329091 
L 114.700009 168.17434 
L 114.893615 132.502775 
L 115.08722 163.558946 
L 115.280825 290.329091 
L 118.378505 290.329091 
L 118.57211 170.695508 
L 118.765715 134.87818 
L 118.95932 165.791737 
L 119.152926 290.329091 
L 122.250606 290.329091 
L 122.444211 173.081711 
L 122.637816 137.118169 
L 122.831421 167.889561 
L 123.025026 290.329091 
L 126.122707 290.329091 
L 126.316312 175.347793 
L 126.509917 139.238038 
L 126.703522 169.867266 
L 126.897127 290.329091 
L 129.994808 290.329091 
L 130.188413 177.505452 
L 130.382018 141.249484 
L 130.575623 171.736547 
L 130.769228 290.329091 
L 133.866909 290.329091 
L 134.060514 179.566386 
L 134.254119 143.163755 
L 134.447724 173.509103 
L 134.641329 290.329091 
L 137.73901 290.329091 
L 137.932615 181.538692 
L 138.12622 144.989847 
L 138.319825 175.193032 
L 138.51343 290.329091 
L 141.611111 290.329091 
L 141.804716 183.430918 
L 141.998321 146.73541 
L 142.191926 176.79643 
L 142.385531 290.329091 
L 145.483212 290.329091 
L 145.676817 185.249812 
L 145.870422 148.407191 
L 146.064027 178.326947 
L 146.257632 290.329091 
L 149.355313 290.329091 
L 149.548918 187.000774 
L 149.742523 150.011939 
L 149.936128 179.78953 
L 150.129733 290.329091 
L 153.227413 290.329091 
L 153.421019 188.690101 
L 153.614624 151.554153 
L 153.808229 181.190479 
L 154.001834 290.329091 
L 157.099514 290.329091 
L 157.293119 190.321842 
L 157.486724 153.038781 
L 157.68033 182.533843 
L 157.873935 290.329091 
L 160.971615 290.329091 
L 161.16522 191.900497 
L 161.358825 154.470323 
L 161.55243 183.82412 
L 161.746035 290.329091 
L 164.843716 290.329091 
L 165.037321 193.430113 
L 165.230926 155.851926 
L 165.424531 185.064909 
L 165.618136 290.329091 
L 168.715817 290.329091 
L 168.909422 194.913392 
L 169.103027 157.188092 
L 169.296632 186.259809 
L 169.490237 290.329091 
L 172.587918 290.329091 
L 172.781523 196.353931 
L 172.975128 158.480618 
L 173.168733 187.411521 
L 173.362338 290.329091 
L 176.460019 290.329091 
L 176.653624 197.75398 
L 176.847229 159.733104 
L 177.040834 188.523193 
L 177.234439 290.329091 
L 180.33212 290.329091 
L 180.525725 199.116689 
L 180.71933 160.9478 
L 180.912935 189.597523 
L 181.10654 290.329091 
L 184.204221 290.329091 
L 184.591431 162.126955 
L 184.785036 190.635863 
L 184.978641 290.329091 
L 188.076322 290.329091 
L 188.463532 163.272368 
L 188.657137 191.641361 
L 188.850742 290.329091 
L 191.948423 290.329091 
L 192.335633 164.386739 
L 192.529238 192.614918 
L 192.722843 290.329091 
L 195.820523 290.329091 
L 196.207734 165.470967 
L 196.401339 193.559231 
L 196.594944 290.329091 
L 199.692624 290.329091 
L 200.079834 166.527302 
L 200.27344 194.475651 
L 200.467045 290.329091 
L 203.564725 290.329091 
L 203.951935 167.556644 
L 204.14554 195.365079 
L 204.339145 290.329091 
L 207.436826 290.329091 
L 207.824036 168.560793 
L 208.017641 196.229312 
L 208.211246 290.329091 
L 211.308927 290.329091 
L 211.696137 169.540648 
L 211.889742 197.069702 
L 212.083347 290.329091 
L 215.181028 290.329091 
L 215.568238 170.498008 
L 215.761843 197.887597 
L 215.955448 290.329091 
L 219.053129 290.329091 
L 219.440339 171.433323 
L 219.633944 198.683447 
L 219.827549 290.329091 
L 222.92523 290.329091 
L 223.31244 172.347944 
L 223.506045 199.459053 
L 223.69965 290.329091 
L 226.797331 290.329091 
L 227.184541 173.24277 
L 227.378146 200.214414 
L 227.571751 290.329091 
L 230.669432 290.329091 
L 231.056642 174.118251 
L 231.250247 200.951329 
L 231.443852 290.329091 
L 234.541533 290.329091 
L 234.928743 174.976186 
L 235.122348 201.670249 
L 235.315953 290.329091 
L 238.413633 290.329091 
L 238.800844 175.816575 
L 238.994449 202.371624 
L 239.188054 290.329091 
L 242.285734 290.329091 
L 242.672944 176.640319 
L 242.866549 203.056802 
L 243.060155 290.329091 
L 246.157835 290.329091 
L 246.545045 177.448317 
L 246.73865 203.726234 
L 246.932255 290.329091 
L 250.029936 290.329091 
L 250.417146 178.241018 
L 250.610751 204.38082 
L 250.804356 290.329091 
L 253.902037 290.329091 
L 254.289247 179.018873 
L 254.482852 205.02011 
L 254.676457 290.329091 
L 257.774138 290.329091 
L 258.161348 179.782782 
L 258.354953 205.645903 
L 258.548558 290.329091 
L 261.646239 290.329091 
L 262.033449 180.533194 
L 262.227054 206.2582 
L 262.420659 290.329091 
L 265.51834 290.329091 
L 265.90555 181.270559 
L 266.099155 206.85745 
L 266.29276 290.329091 
L 269.390441 290.329091 
L 269.777651 181.995328 
L 269.971256 207.444553 
L 270.164861 290.329091 
L 273.262542 290.329091 
L 273.649752 182.707949 
L 273.843357 208.019509 
L 274.036962 290.329091 
L 277.134643 290.329091 
L 277.521853 183.409324 
L 277.715458 208.582768 
L 277.909063 290.329091 
L 281.006743 290.329091 
L 281.393954 184.099001 
L 281.587559 209.134779 
L 281.781164 290.329091 
L 284.878844 290.329091 
L 285.266054 184.777881 
L 285.459659 209.676444 
L 285.653265 290.329091 
L 288.750945 290.329091 
L 289.138155 185.446413 
L 289.33176 210.207311 
L 289.525365 290.329091 
L 292.623046 290.329091 
L 293.010256 186.104598 
L 293.203861 210.72828 
L 293.397466 290.329091 
L 296.495147 290.329091 
L 296.882357 186.753336 
L 297.075962 211.239802 
L 297.269567 290.329091 
L 300.367248 290.329091 
L 300.754458 187.392626 
L 300.948063 211.741427 
L 301.141668 290.329091 
L 304.239349 290.329091 
L 304.626559 188.022468 
L 304.820164 212.234503 
L 305.013769 290.329091 
L 308.11145 290.329091 
L 308.49866 188.643312 
L 308.692265 212.718582 
L 308.88587 290.329091 
L 311.983551 290.329091 
L 312.370761 189.256059 
L 312.564366 213.194113 
L 312.757971 290.329091 
L 315.855652 290.329091 
L 316.242862 189.860258 
L 316.436467 213.661096 
L 316.630072 290.329091 
L 319.727752 290.329091 
L 320.114963 190.456358 
L 320.308568 214.120431 
L 320.502173 290.329091 
L 323.599853 290.329091 
L 323.987063 191.044361 
L 324.180669 214.572117 
L 324.374274 290.329091 
L 327.471954 290.329091 
L 327.859164 191.625166 
L 328.052769 215.016156 
L 328.246374 290.329091 
L 331.344055 290.329091 
L 331.731265 192.198772 
L 331.92487 215.452547 
L 332.118475 290.329091 
L 335.216156 290.329091 
L 335.603366 192.76473 
L 335.796971 215.882189 
L 335.990576 290.329091 
L 339.088257 290.329091 
L 339.475467 193.32394 
L 339.669072 216.305083 
L 339.862677 290.329091 
L 342.960358 290.329091 
L 343.347568 193.876402 
L 343.541173 216.721229 
L 343.734778 290.329091 
L 346.832459 290.329091 
L 347.219669 194.422565 
L 347.413274 217.130627 
L 347.606879 290.329091 
L 350.70456 290.329091 
L 351.09177 194.96198 
L 351.285375 217.533726 
L 351.47898 290.329091 
L 354.576661 290.329091 
L 354.963871 195.495546 
L 355.157476 217.930526 
L 355.351081 290.329091 
L 358.448762 290.329091 
L 358.835972 196.022814 
L 359.029577 218.321928 
L 359.223182 290.329091 
L 362.320862 290.329091 
L 362.708073 196.544233 
L 362.901678 218.707032 
L 363.095283 290.329091 
L 366.192963 290.329091 
L 366.580173 197.060254 
L 366.773778 219.085837 
L 366.967384 290.329091 
L 370.065064 290.329091 
L 370.452274 197.570426 
L 370.645879 219.460143 
L 370.839484 290.329091 
L 373.937165 290.329091 
L 374.324375 198.0752 
L 374.51798 219.829051 
L 374.711585 290.329091 
L 377.809266 290.329091 
L 378.196476 198.574575 
L 378.390081 220.19211 
L 378.583686 290.329091 
L 381.681367 290.329091 
L 382.068577 199.069001 
L 382.262182 220.55022 
L 382.455787 290.329091 
L 385.553468 290.329091 
L 385.940678 199.558478 
L 386.134283 220.903382 
L 386.327888 290.329091 
L 389.425569 290.329091 
L 389.812779 200.043007 
L 390.006384 221.251594 
L 390.199989 290.329091 
L 393.29767 290.329091 
L 393.68488 200.523037 
L 393.878485 221.595308 
L 394.07209 290.329091 
L 397.169771 290.329091 
L 397.556981 200.998118 
L 397.750586 221.934073 
L 397.944191 290.329091 
L 401.041872 290.329091 
L 401.429082 201.46915 
L 401.622687 222.26789 
L 401.816292 290.329091 
L 404.913972 290.329091 
L 405.301183 201.937932 
L 405.494788 222.598107 
L 405.688393 290.329091 
L 408.786073 290.329091 
L 409.173283 202.397267 
L 409.366888 222.923376 
L 409.560494 290.329091 
L 412.658174 290.329091 
L 413.045384 202.855252 
L 413.238989 223.244145 
L 413.432594 290.329091 
L 416.530275 290.329091 
L 416.917485 203.309639 
L 417.11109 223.560416 
L 417.304695 290.329091 
L 420.402376 290.329091 
L 420.789586 203.760426 
L 420.983191 223.872188 
L 421.176796 290.329091 
L 424.274477 290.329091 
L 424.661687 204.207164 
L 424.855292 224.179011 
L 425.048897 290.329091 
L 428.146578 290.329091 
L 428.533788 204.651652 
L 428.727393 224.480885 
L 428.920998 290.329091 
L 432.018679 290.329091 
L 432.405889 205.093892 
L 432.599494 224.775562 
L 432.793099 290.329091 
L 435.89078 290.329091 
L 436.27799 205.537031 
L 436.471595 225.058541 
L 436.6652 290.329091 
L 439.762881 290.329091 
L 440.150091 205.994566 
L 440.343696 225.306429 
L 440.537301 290.329091 
L 444.409402 290.329091 
L 444.409402 290.329091 
" clip-path="url(#p86e13451f6)" style="fill: none; stroke: #1f77b4; stroke-width: 1.5; stroke-linecap: square"/>
   </g>
   <g id="patch_3">
    <path d="M 52.94 303.64 
L 52.94 10.8 
" style="fill: none; stroke: #000000; stroke-width: 0.8; stroke-linejoin: miter; stroke-linecap: square"/>
   </g>
   <g id="patch_4">
    <path d="M 444.215797 303.64 
L 444.215797 10.8 
" style="fill: none; stroke: #000000; stroke-width: 0.8; stroke-linejoin: miter; stroke-linecap: square"/>
   </g>
   <g id="patch_5">
    <path d="M 52.94 303.64 
L 444.215797 303.64 
" style="fill: none; stroke: #000000; stroke-width: 0.8; stroke-linejoin: miter; stroke-linecap: square"/>
   </g>
   <g id="patch_6">
    <path d="M 52.94 10.8 
L 444.215797 10.8 
" style="fill: none; stroke: #000000; stroke-width: 0.8; stroke-linejoin: miter; stroke-linecap: square"/>
   </g>
   <g id="legend_1">
    <g id="patch_7">
     <path d="M 386.475172 33.478125 
L 437.215797 33.478125 
Q 439.215797 33.478125 439.215797 31.478125 
L 439.215797 17.8 
Q 439.215797 15.8 437.215797 15.8 
L 386.475172 15.8 
Q 384.475172 15.8 384.475172 17.8 
L 384.475172 31.478125 
Q 384.475172 33.478125 386.475172 33.478125 
z
" style="fill: #ffffff; opacity: 0.8; stroke: #cccccc; stroke-linejoin: miter"/>
    </g>
    <g id="line2d_15">
     <path d="M 388.475172 23.898438 
L 398.475172 23.898438 
L 408.475172 23.898438 
" style="fill: none; stroke: #1f77b4; stroke-width: 1.5; stroke-linecap: square"/>
    </g>
    <g id="text_16">
     <!-- SP1 -->
     <g transform="translate(416.475172 27.398438) scale(0.1 -0.1)">
      <defs>
       <path id="DejaVuSans-53" d="M 3425 4513 
L 3425 3897 
Q 3066 4069 2747 4153 
Q 2428 4238 2131 4238 
Q 1616 4238 1336 4038 
Q 1056 3838 1056 3469 
Q 1056 3159 1242 3001 
Q 1428 2844 1947 2747 
L 2328 2669 
Q 3034 2534 3370 2195 
Q 3706 1856 3706 1288 
Q 3706 609 3251 259 
Q 2797 -91 1919 -91 
Q 1588 -91 1214 -16 
Q 841 59 441 206 
L 441 856 
Q 825 641 1194 531 
Q 1563 422 1919 422 
Q 2459 422 2753 634 
Q 3047 847 3047 1241 
Q 3047 1584 2836 1778 
Q 2625 1972 2144 2069 
L 1759 2144 
Q 1053 2284 737 2584 
Q 422 2884 422 3419 
Q 422 4038 858 4394 
Q 1294 4750 2059 4750 
Q 2388 4750 2728 4690 
Q 3069 4631 3425 4513 
z
" transform="scale(0.015625)"/>
       <path id="DejaVuSans-50" d="M 1259 4147 
L 1259 2394 
L 2053 2394 
Q 2494 2394 2734 2622 
Q 2975 2850 2975 3272 
Q 2975 3691 2734 3919 
Q 2494 4147 2053 4147 
L 1259 4147 
z
M 628 4666 
L 2053 4666 
Q 2838 4666 3239 4311 
Q 3641 3956 3641 3272 
Q 3641 2581 3239 2228 
Q 2838 1875 2053 1875 
L 1259 1875 
L 1259 0 
L 628 0 
L 628 4666 
z
" transform="scale(0.015625)"/>
      </defs>
      <use xlink:href="#DejaVuSans-53"/>
      <use xlink:href="#DejaVuSans-50" x="63.476562"/>
      <use xlink:href="#DejaVuSans-31" x="123.779297"/>
     </g>
    </g>
   </g>
  </g>
 </g>
 <defs>
  <clipPath id="p86e13451f6">
   <rect x="52.94" y="10.8" width="391.275797" height="292.84"/>
  </clipPath>
 </defs>
</svg>
